<svg id="Layer_1" data-name="Layer 1" xmlns="http://www.w3.org/2000/svg" xmlns:xlink="http://www.w3.org/1999/xlink" viewBox="0 0 59.42 59.42"><defs><style>.cls-1{fill:none;}.cls-2{clip-path:url(#clip-path);}.cls-3{fill:#fff;}</style><clipPath id="clip-path" transform="translate(-0.88 -1.16)"><rect class="cls-1" x="-292.83" width="353.13" height="60.58"/></clipPath></defs><g class="cls-2"><g id="Group_102" data-name="Group 102"><path id="Path_48" data-name="Path 48" class="cls-3" d="M30.59,1.16A29.71,29.71,0,1,0,60.3,30.88h0A29.73,29.73,0,0,0,30.59,1.16m-15,30.71.12-.2,7.73-12.09a.25.25,0,0,1,.46,0c1.29,2.89,2.41,6.49,1.89,8.73a13.86,13.86,0,0,1-1.52,3.32c-.09.17-.19.34-.29.5a.28.28,0,0,1-.22.11h-8A.26.26,0,0,1,15.5,32a.23.23,0,0,1,0-.14M50,36a.27.27,0,0,1-.16.25,9.44,9.44,0,0,0-3.5,2.38c-2.17,3-3.83,7.35-7.54,7.35H23.29a10,10,0,0,1-9.93-10h0v-.18a.26.26,0,0,1,.26-.26h8.63a.3.3,0,0,1,.29.31v0a2.82,2.82,0,0,0,.31,1.66,3,3,0,0,0,2.72,1.68h4.27V35.94H25.61a.26.26,0,0,1-.26-.28.23.23,0,0,1,0-.15,2.17,2.17,0,0,1,.15-.22c.4-.57,1-1.45,1.54-2.46a18.23,18.23,0,0,0,1.06-2.12c.06-.13.11-.27.16-.4s.17-.46.23-.67.11-.37.16-.55a8.5,8.5,0,0,0,.2-1.95,7.2,7.2,0,0,0,0-.81c0-.29-.05-.58-.08-.87a6.83,6.83,0,0,0-.12-.77c-.06-.39-.15-.78-.24-1.16l0-.15c-.07-.27-.14-.52-.22-.79-.24-.83-.52-1.64-.81-2.4-.11-.3-.23-.6-.35-.88-.18-.44-.37-.84-.53-1.21-.09-.17-.16-.33-.24-.49s-.16-.36-.25-.53-.13-.25-.18-.37l-.52-1a.17.17,0,0,1,.06-.23.2.2,0,0,1,.13,0l3.27.89h0l.43.12.47.14.17,0V14.75a1.69,1.69,0,0,1,1.68-1.7h0a1.65,1.65,0,0,1,1.18.5,1.73,1.73,0,0,1,.49,1.2v2.88l.35.09.08.05c.08.05.21.15.36.27a5.23,5.23,0,0,1,.41.34c.32.25.7.58,1.11,1l.31.29c.53.49,1.12,1.07,1.69,1.71.16.18.32.36.48.56s.33.38.47.57.4.53.58.8.19.27.26.4c.23.35.44.71.64,1.08.08.16.16.35.24.53a7.58,7.58,0,0,1,.5,1.48,1.65,1.65,0,0,1,.07.32v0a3.47,3.47,0,0,1,.06.45,4.9,4.9,0,0,1-.09,1.53,5,5,0,0,1-.17.64c-.08.22-.15.42-.25.63a8.62,8.62,0,0,1-.65,1.24l-.28.45L39,32.5l-.42.55c-.13.17-.27.35-.41.51s-.4.47-.61.69a3.88,3.88,0,0,1-.39.42c-.13.15-.26.28-.38.4l-.52.5-.34.3a.24.24,0,0,1-.18.07h-2.6v3.34h3.28a3,3,0,0,0,2-.74,23.69,23.69,0,0,0,2-2,.29.29,0,0,1,.12-.07l9-2.62A.27.27,0,0,1,50,34a.22.22,0,0,1,0,.08Z" transform="translate(-0.88 -1.16)"/></g></g></svg>