<svg xmlns="http://www.w3.org/2000/svg" xmlns:xlink="http://www.w3.org/1999/xlink" width="258.276" height="52.429" viewBox="0 0 258.276 52.429">
  <defs>
    <clipPath id="clip-path">
      <rect id="Rectangle_6" data-name="Rectangle 6" width="258.276" height="52.429" transform="translate(0 0)" fill="none"/>
    </clipPath>
  </defs>
  <g id="Group_14" data-name="Group 14" transform="translate(0 0)">
    <path id="Path_18" data-name="Path 18" d="M13.8,15.153v7.755H5.84V15.153H0V35.794H5.84v-8.05H13.8v8.05H19.64V15.153Z" fill="#fff"/>
    <g id="Group_13" data-name="Group 13">
      <g id="Group_12" data-name="Group 12" clip-path="url(#clip-path)">
        <path id="Path_19" data-name="Path 19" d="M28.3,34.822a10.554,10.554,0,0,1,0-18.7,12.341,12.341,0,0,1,5.883-1.386,12.35,12.35,0,0,1,5.883,1.386,10.555,10.555,0,0,1,0,18.7,12.35,12.35,0,0,1-5.883,1.386A12.341,12.341,0,0,1,28.3,34.822m8.713-4.187a5.3,5.3,0,0,0,2.006-2.079,6.811,6.811,0,0,0,0-6.163,5.3,5.3,0,0,0-2.006-2.079,5.8,5.8,0,0,0-5.661,0,5.288,5.288,0,0,0-2.005,2.079,6.811,6.811,0,0,0,0,6.163,5.288,5.288,0,0,0,2.005,2.079,5.8,5.8,0,0,0,5.661,0" fill="#fff"/>
        <path id="Path_20" data-name="Path 20" d="M68.354,15.153V35.8H63.547l-9.112-11v11H48.715V15.153h4.807l9.111,11v-11Z" fill="#fff"/>
        <path id="Path_21" data-name="Path 21" d="M89.055,31.283V35.8H72.483V15.153H88.672v4.512H78.262v3.479h9.171v4.365H78.262v3.774Z" fill="#fff"/>
        <path id="Path_22" data-name="Path 22" d="M103.18,28.394v7.4H97.341V28.3L89.468,15.154h6.163l4.895,8.2,4.9-8.2h5.661Z" fill="#fff"/>
        <path id="Path_23" data-name="Path 23" d="M151.258,38.975h-4.819l-.145.25-4.524,7.832a.891.891,0,0,1-.774.448H117.452a.915.915,0,0,1-.784-.453L104.9,26.664a.906.906,0,0,1,0-.9L116.67,5.379a.908.908,0,0,1,.782-.454H141a.9.9,0,0,1,.778.451l3.937,6.818.144.25h5.685l-.433-.75L146.04,2.918A5.835,5.835,0,0,0,141,0H117.452a5.846,5.846,0,0,0-5.044,2.914L100.638,23.3a5.833,5.833,0,0,0,0,5.828l11.77,20.39a5.846,5.846,0,0,0,5.044,2.912H141a5.826,5.826,0,0,0,5.041-2.915l5.654-9.79.433-.75Z" fill="#ee900c"/>
        <path id="Path_24" data-name="Path 24" d="M132.274,26.964a5.075,5.075,0,0,1,1,3.169,4.757,4.757,0,0,1-2.182,4.188,11.254,11.254,0,0,1-6.31,1.475H113.637V15.154h10.557a10.369,10.369,0,0,1,6.016,1.46,4.583,4.583,0,0,1,2.064,3.936,4.9,4.9,0,0,1-.722,2.639,5.049,5.049,0,0,1-2.05,1.843,5.784,5.784,0,0,1,2.772,1.932m-12.857-7.593v3.98h4.011q2.947,0,2.948-2,0-1.974-2.948-1.975Zm7.962,10.114q0-2.094-3.067-2.094h-4.895v4.188h4.895q3.068,0,3.067-2.094" fill="#fff"/>
        <path id="Path_25" data-name="Path 25" d="M152.886,31.283V35.8H136.314V15.153H152.5v4.512h-10.41v3.479h9.171v4.365h-9.171v3.774Z" fill="#fff"/>
        <path id="Path_26" data-name="Path 26" d="M172.7,31.283V35.8H156.129V15.153h16.189v4.512H161.909v3.479h9.171v4.365h-9.171v3.774Z" fill="#fff"/>
        <path id="Path_27" data-name="Path 27" d="M180.384,34.837a10.261,10.261,0,0,1-4.055-3.819,10.531,10.531,0,0,1-1.474-5.544,10.53,10.53,0,0,1,1.474-5.543,10.256,10.256,0,0,1,4.055-3.82,12.216,12.216,0,0,1,5.824-1.371,12.515,12.515,0,0,1,5.1,1,9.82,9.82,0,0,1,3.774,2.89l-3.716,3.361a6.115,6.115,0,0,0-4.865-2.418,6,6,0,0,0-2.993.738,5.112,5.112,0,0,0-2.035,2.079,6.937,6.937,0,0,0,0,6.163,5.112,5.112,0,0,0,2.035,2.079,6.006,6.006,0,0,0,2.993.737,6.112,6.112,0,0,0,4.865-2.418l3.716,3.362a9.828,9.828,0,0,1-3.774,2.889,12.515,12.515,0,0,1-5.1,1,12.216,12.216,0,0,1-5.824-1.371" fill="#fff"/>
        <path id="Path_28" data-name="Path 28" d="M197.679,15.153h5.839V31.165h9.849V35.8H197.679Z" fill="#fff"/>
        <path id="Path_29" data-name="Path 29" d="M217.834,33.7q-2.552-2.507-2.551-7.106V15.153h5.839V26.418q0,4.955,3.922,4.954,3.893,0,3.893-4.954V15.153h5.75V26.595q0,4.6-2.551,7.106a11.452,11.452,0,0,1-14.3,0" fill="#fff"/>
        <path id="Path_30" data-name="Path 30" d="M257.275,26.964a5.074,5.074,0,0,1,1,3.169,4.756,4.756,0,0,1-2.181,4.188,11.26,11.26,0,0,1-6.311,1.475H238.638V15.154h10.556a10.367,10.367,0,0,1,6.016,1.46,4.582,4.582,0,0,1,2.065,3.936,4.905,4.905,0,0,1-.723,2.639,5.042,5.042,0,0,1-2.05,1.843,5.792,5.792,0,0,1,2.773,1.932m-12.858-7.593v3.98h4.011q2.949,0,2.949-2,0-1.974-2.949-1.975Zm7.962,10.114q0-2.094-3.066-2.094h-4.9v4.188h4.9q3.066,0,3.066-2.094" fill="#fff"/>
      </g>
    </g>
  </g>
</svg>
